<svg width="401" height="401" viewBox="0 0 401 232" fill="none" xmlns="http://www.w3.org/2000/svg">
<rect x="13" y="64.1711" width="360" height="168" transform="rotate(-6.24664 13 64.1711)" fill="#4184CB" fill-opacity="0.81"/>
<path d="M74.7 167.1C74.7 169 74 170.65 72.6 172.05C71.3 173.35 69.7 174 67.8 174H63.45C60.75 174 58.75 172.85 57.45 170.55L25.5 115.2C25.3 114.8 25 114.7 24.6 114.9C24.2 115 24 115.2 24 115.5V167.1C24 169 23.3 170.65 21.9 172.05C20.6 173.35 19.05 174 17.25 174H13.05C11.15 174 9.5 173.35 8.1 172.05C6.8 170.65 6.15 169 6.15 167.1V79.5C6.15 77.5 6.8 75.85 8.1 74.55C9.5 73.25 11.15 72.6 13.05 72.6H17.4C20.1 72.6 22.1 73.75 23.4 76.05L55.35 131.4C55.65 131.8 55.95 131.95 56.25 131.85C56.65 131.75 56.85 131.5 56.85 131.1V79.5C56.85 77.5 57.5 75.85 58.8 74.55C60.2 73.25 61.85 72.6 63.75 72.6H67.8C69.7 72.6 71.3 73.25 72.6 74.55C74 75.85 74.7 77.5 74.7 79.5V167.1ZM155.559 154.2C155.559 157.8 154.659 161.1 152.859 164.1C151.059 167.1 148.659 169.5 145.659 171.3C142.659 173.1 139.359 174 135.759 174H106.959C103.359 174 100.009 173.1 96.9094 171.3C93.9094 169.5 91.5094 167.1 89.7094 164.1C87.9094 161.1 87.0094 157.8 87.0094 154.2V92.55C87.0094 88.85 87.9094 85.5 89.7094 82.5C91.5094 79.5 93.9094 77.1 96.9094 75.3C100.009 73.5 103.359 72.6 106.959 72.6H135.759C139.359 72.6 142.659 73.5 145.659 75.3C148.659 77.1 151.059 79.5 152.859 82.5C154.659 85.5 155.559 88.85 155.559 92.55V154.2ZM137.709 154.2V92.55C137.709 91.15 137.059 90.45 135.759 90.45H106.959C106.459 90.45 105.959 90.65 105.459 91.05C105.059 91.45 104.859 91.95 104.859 92.55V154.2C104.859 154.7 105.059 155.2 105.459 155.7C105.959 156.1 106.459 156.3 106.959 156.3H135.759C136.259 156.3 136.709 156.1 137.109 155.7C137.509 155.2 137.709 154.7 137.709 154.2ZM234.619 83.55C234.619 85.45 233.969 87.1 232.669 88.5C231.369 89.8 229.719 90.45 227.719 90.45H211.969C210.669 90.45 210.019 91.1 210.019 92.4V167.1C210.019 169 209.319 170.65 207.919 172.05C206.619 173.35 205.019 174 203.119 174H199.219C197.319 174 195.669 173.35 194.269 172.05C192.969 170.65 192.319 169 192.319 167.1V92.4C192.319 91.1 191.669 90.45 190.369 90.45H174.469C172.569 90.45 170.919 89.8 169.519 88.5C168.219 87.1 167.569 85.45 167.569 83.55V79.5C167.569 77.5 168.219 75.85 169.519 74.55C170.919 73.25 172.569 72.6 174.469 72.6H227.719C229.719 72.6 231.369 73.25 232.669 74.55C233.969 75.85 234.619 77.5 234.619 79.5V83.55ZM311.774 167.1C311.774 169 311.074 170.65 309.674 172.05C308.374 173.35 306.824 174 305.024 174H253.424C251.624 174 250.024 173.35 248.624 172.05C247.324 170.65 246.674 169 246.674 167.1V79.5C246.674 77.5 247.324 75.85 248.624 74.55C250.024 73.25 251.624 72.6 253.424 72.6H305.024C306.824 72.6 308.374 73.25 309.674 74.55C311.074 75.85 311.774 77.5 311.774 79.5V83.55C311.774 85.45 311.074 87.1 309.674 88.5C308.374 89.8 306.824 90.45 305.024 90.45H266.324C265.124 90.45 264.524 91.1 264.524 92.4V112.35C264.524 113.75 265.124 114.45 266.324 114.45H299.624C301.624 114.45 303.274 115.1 304.574 116.4C305.874 117.7 306.524 119.3 306.524 121.2V125.4C306.524 127.3 305.874 128.95 304.574 130.35C303.274 131.65 301.624 132.3 299.624 132.3H266.324C265.124 132.3 264.524 132.9 264.524 134.1V154.35C264.524 155.65 265.124 156.3 266.324 156.3H305.024C306.824 156.3 308.374 156.95 309.674 158.25C311.074 159.55 311.774 161.2 311.774 163.2V167.1ZM392.425 154.2C392.425 157.8 391.525 161.1 389.725 164.1C387.925 167.1 385.525 169.5 382.525 171.3C379.525 173.1 376.225 174 372.625 174H343.825C340.225 174 336.875 173.1 333.775 171.3C330.775 169.5 328.375 167.1 326.575 164.1C324.775 161.1 323.875 157.8 323.875 154.2V149.7C323.875 147.8 324.525 146.2 325.825 144.9C327.225 143.5 328.875 142.8 330.775 142.8H334.975C336.775 142.8 338.325 143.5 339.625 144.9C341.025 146.2 341.725 147.8 341.725 149.7V154.2C341.725 154.7 341.925 155.2 342.325 155.7C342.825 156.1 343.325 156.3 343.825 156.3H372.625C373.125 156.3 373.575 156.1 373.975 155.7C374.375 155.2 374.575 154.7 374.575 154.2V140.55C374.575 139.45 374.075 138.75 373.075 138.45L337.075 124.95C333.075 123.55 329.875 121.1 327.475 117.6C325.075 114.1 323.875 110.25 323.875 106.05V92.55C323.875 88.85 324.775 85.5 326.575 82.5C328.375 79.5 330.775 77.1 333.775 75.3C336.875 73.5 340.225 72.6 343.825 72.6H372.625C376.225 72.6 379.525 73.5 382.525 75.3C385.525 77.1 387.925 79.5 389.725 82.5C391.525 85.5 392.425 88.85 392.425 92.55V96.6C392.425 98.5 391.725 100.1 390.325 101.4C389.025 102.7 387.425 103.35 385.525 103.35H381.475C379.575 103.35 377.925 102.7 376.525 101.4C375.225 100.1 374.575 98.5 374.575 96.6V92.55C374.575 91.15 373.925 90.45 372.625 90.45H343.825C343.325 90.45 342.825 90.65 342.325 91.05C341.925 91.45 341.725 91.95 341.725 92.55V106.05C341.725 107.25 342.225 108 343.225 108.3L379.375 121.8C383.275 123.2 386.425 125.65 388.825 129.15C391.225 132.65 392.425 136.45 392.425 140.55V154.2Z" fill="#00FFFF"/>
</svg>
